<svg viewBox="0 0 1440 320" xmlns="http://www.w3.org/2000/svg">
  <defs>
    <linearGradient id="grad1" x1="0%" y1="0%" x2="100%" y2="0%">
      <stop offset="0%" style="stop-color:#4c6ef5;stop-opacity:0.1" />
      <stop offset="100%" style="stop-color:#339af0;stop-opacity:0.1" />
    </linearGradient>
  </defs>
  <path fill="url(#grad1)" d="M0,64L48,85.3C96,107,192,149,288,149.3C384,149,480,107,576,106.7C672,107,768,149,864,176C960,203,1056,213,1152,186.7C1248,160,1344,96,1392,64L1440,32L1440,320L1392,320C1344,320,1248,320,1152,320C1056,320,960,320,864,320C768,320,672,320,576,320C480,320,384,320,288,320C192,320,96,320,48,320L0,320Z"></path>
  <path fill="url(#grad1)" d="M0,192L48,197.3C96,203,192,213,288,197.3C384,181,480,139,576,138.7C672,139,768,181,864,181.3C960,181,1056,139,1152,138.7C1248,139,1344,181,1392,202.7L1440,224L1440,320L1392,320C1344,320,1248,320,1152,320C1056,320,960,320,864,320C768,320,672,320,576,320C480,320,384,320,288,320C192,320,96,320,48,320L0,320Z"></path>
  <path fill="url(#grad1)" d="M0,256L48,261.3C96,267,192,277,288,261.3C384,245,480,203,576,202.7C672,203,768,245,864,245.3C960,245,1056,203,1152,202.7C1248,203,1344,245,1392,266.7L1440,288L1440,320L1392,320C1344,320,1248,320,1152,320C1056,320,960,320,864,320C768,320,672,320,576,320C480,320,384,320,288,320C192,320,96,320,48,320L0,320Z"></path>
</svg>